<svg xmlns="http://www.w3.org/2000/svg" viewBox="0 0 64 64"><defs><linearGradient id="g" x1="0" y1="0" x2="1" y2="1"><stop stop-color="#1f6042"/><stop offset="1" stop-color="#0b281b"/></linearGradient></defs><path d="M10 7h37c6 0 10 4 10 10v31c0 6-4 10-10 10H17c-6 0-10-4-10-10V17c0-6 4-10 10-10Z" fill="url(#g)"/><path d="M47 5c7-3 12-1 12-1s1 5-3 10c-3 3-7 3-10 2 0-4-1-8 1-11Z" fill="#91c575"/><rect x="13" y="13" width="38" height="38" rx="10" fill="none" stroke="#dfff9e" stroke-opacity=".28"/><text x="32" y="42" text-anchor="middle" font-family="KaiTi,STKaiti,serif" font-size="29" font-weight="700" fill="#ddff9f">拾</text></svg>
